[Header]                  # Header keywords are followed by a single value
FileType htr              # single word string
DataType HTRS             # Hierarchical translations followed by rotations and Scale
FileVersion 1             # integer
NumSegments   22        # integer
NumFrames  4          # integer
DataFrameRate    60      # integer
EulerRotationOrder ZYX    # one word string
CalibrationUnits mm   # one word string
RotationUnits Degrees     # one word string
GlobalAxisofGravity Y        # character, X or Y or Z
BoneLengthAxis Y
ScaleFactor 1.0000
[SegmentNames&Hierarchy]
#CHILD         PARENT
LowerTorso	GLOBAL
MidTorso1	LowerTorso
MidTorso2	MidTorso1
UpperTorso	MidTorso2
Neck	UpperTorso
Head	Neck
LCollar	UpperTorso
LUpArm	LCollar
LLowArm	LUpArm
LHand	LLowArm
RCollar	UpperTorso
RUpArm	RCollar
RLowArm	RUpArm
RHand	RLowArm
RThigh	LowerTorso
RLowLeg	RThigh
RFoot	RLowLeg
RToe	RFoot
LThigh	LowerTorso
LLowLeg	LThigh
LFoot	LLowLeg
LToe	LFoot
[BasePosition]
#SegmentName Tx, Ty, Tz, Rx, Ry, Rz, BoneLength
LowerTorso	245.857281	950.546486	248.637529	3.098927	-0.002210	0.042162	59.711333	
MidTorso1	0.000000	59.711333	0.000000	12.937915	-0.002675	-0.030860	59.789096	
MidTorso2	0.000000	59.789096	0.000000	-8.588562	0.003459	0.011437	83.428957	
UpperTorso	0.000000	83.428957	0.000000	-7.932331	-0.001012	-0.030752	241.957510	
Neck	0.000000	241.957510	0.000000	-0.094097	0.000027	0.097203	231.829248	
Head	0.000000	231.829248	0.000000	90.077927	-0.000108	-0.089730	91.574582	
LCollar	6.813599	237.360039	0.023153	2.387721	-0.015547	-90.013255	183.371476	
LUpArm	0.000000	183.371476	0.000000	5.326590	-0.698152	6.338799	275.550262	
LLowArm	0.000000	275.550262	0.000000	0.023606	-0.000027	0.019344	209.826044	
LHand	0.000000	209.826044	0.000000	0.056212	0.000012	-0.012212	145.298309	
RCollar	-7.320367	237.102711	-0.039007	12.450709	0.004248	90.115141	167.861514	
RUpArm	0.000000	167.861514	0.000000	-6.122028	-0.820027	-2.646363	291.470253	
RLowArm	0.000000	291.470253	0.000000	0.000001	0.000000	-0.000274	217.757286	
RHand	0.000000	217.757286	0.000000	0.000373	0.000000	0.000511	137.536656	
RThigh	-124.450736	-52.205152	84.621319	5.924306	0.309605	177.207098	421.029795	
RLowLeg	0.000000	421.029795	0.000000	-15.759515	-0.017515	3.120486	365.105663	
RFoot	0.000000	365.105663	0.000000	55.897303	0.149984	-4.373210	148.323736	
RToe	0.000000	148.323736	0.000000	45.100933	2.167436	3.449341	115.306227	
LThigh	124.374466	-52.388373	84.621456	5.928259	-0.221338	-178.140447	426.796764	
LLowLeg	0.000000	426.796764	0.000000	-15.759694	0.017551	-3.120303	361.153822	
LFoot	0.000000	361.153822	0.000000	55.897848	-0.150027	4.373120	146.718976	
LToe	0.000000	146.718976	0.000000	45.100748	-2.167253	-3.449489	114.060784	
#Beginning of Data. Separated by tabs
[LowerTorso]
#Fr     Tx      Ty      Tz      Rx      Ry      Rz      SF
714	4.769639	-1.805829	527.403992	4.651715	30.819815	0.242588	1.000000	
715	-0.634671	-3.409662	521.627014	5.895719	30.317320	1.064375	1.000000	
716	-7.140527	-5.647692	515.285645	6.581684	29.948784	1.762013	1.000000	
717	-14.707619	-7.380576	507.629181	7.407281	29.672550	2.116275	1.000000	
[MidTorso1]
#Fr     Tx      Ty      Tz      Rx      Ry      Rz      SF
714	0.000000	0.000000	0.000000	1.648324	-3.507431	-0.222350	1.000000	
715	0.000000	0.000000	0.000000	1.538233	-2.941848	-0.490924	1.000000	
716	0.000000	0.000000	0.000000	1.760898	-2.466605	-0.773267	1.000000	
717	0.000000	0.000000	0.000000	2.026389	-2.021898	-0.927527	1.000000	
[MidTorso2]
#Fr     Tx      Ty      Tz      Rx      Ry      Rz      SF
714	0.000000	0.000000	0.000000	1.663142	-3.435191	-0.744203	1.000000	
715	0.000000	0.000000	0.000000	1.547962	-2.835842	-0.925027	1.000000	
716	0.000000	0.000000	0.000000	1.766781	-2.323826	-1.133058	1.000000	
717	0.000000	0.000000	0.000000	2.029470	-1.861134	-1.219075	1.000000	
[UpperTorso]
#Fr     Tx      Ty      Tz      Rx      Ry      Rz      SF
714	0.000000	0.000000	0.000000	1.677550	-3.298698	-1.211566	1.000000	
715	0.000000	0.000000	0.000000	1.557171	-2.680214	-1.307693	1.000000	
716	0.000000	0.000000	0.000000	1.772041	-2.144289	-1.442902	1.000000	
717	0.000000	0.000000	0.000000	2.032049	-1.674022	-1.464147	1.000000	
[Neck]
#Fr     Tx      Ty      Tz      Rx      Ry      Rz      SF
714	0.000000	0.000000	0.000000	-1.614126	-8.858184	2.472718	1.000000	
715	0.000000	0.000000	0.000000	-2.396510	-9.958353	1.903065	1.000000	
716	0.000000	0.000000	0.000000	-3.733468	-10.949925	1.773498	1.000000	
717	0.000000	0.000000	0.000000	-5.789504	-11.834307	1.832371	1.000000	
[Head]
#Fr     Tx      Ty      Tz      Rx      Ry      Rz      SF
714	0.000000	0.000000	0.000000	-1.986942	2.250470	-0.175800	1.000000	
715	0.000000	0.000000	0.000000	-1.475982	2.528857	-0.122597	1.000000	
716	0.000000	0.000000	0.000000	-1.116242	2.745350	-0.124499	1.000000	
717	0.000000	0.000000	0.000000	-0.296960	2.924554	-0.025743	1.000000	
[LCollar]
#Fr     Tx      Ty      Tz      Rx      Ry      Rz      SF
714	0.000000	0.000000	0.000000	4.975536	0.654156	-7.470973	1.000000	
715	0.000000	0.000000	0.000000	4.927479	0.707039	-8.145254	1.000000	
716	0.000000	0.000000	0.000000	5.538630	0.788823	-8.080280	1.000000	
717	0.000000	0.000000	0.000000	5.508029	0.832099	-8.564115	1.000000	
[LUpArm]
#Fr     Tx      Ty      Tz      Rx      Ry      Rz      SF
714	0.000000	0.000000	0.000000	55.223415	20.863140	-41.279686	1.000000	
715	0.000000	0.000000	0.000000	54.837681	21.125395	-40.926624	1.000000	
716	0.000000	0.000000	0.000000	53.554344	21.192406	-41.355480	1.000000	
717	0.000000	0.000000	0.000000	53.147415	21.155327	-40.970299	1.000000	
[LLowArm]
#Fr     Tx      Ty      Tz      Rx      Ry      Rz      SF
714	0.000000	0.000000	0.000000	108.687080	-0.011617	-0.016295	1.000000	
715	0.000000	0.000000	0.000000	107.902138	-0.011671	-0.016135	1.000000	
716	0.000000	0.000000	0.000000	108.283821	-0.011645	-0.016213	1.000000	
717	0.000000	0.000000	0.000000	108.317146	-0.011643	-0.016219	1.000000	
[LHand]
#Fr     Tx      Ty      Tz      Rx      Ry      Rz      SF
714	0.000000	0.000000	0.000000	13.005727	10.275520	8.477045	1.000000	
715	0.000000	0.000000	0.000000	13.304578	9.687271	8.783637	1.000000	
716	0.000000	0.000000	0.000000	13.000460	9.311446	8.784530	1.000000	
717	0.000000	0.000000	0.000000	13.518431	8.394599	8.883144	1.000000	
[RCollar]
#Fr     Tx      Ty      Tz      Rx      Ry      Rz      SF
714	0.000000	0.000000	0.000000	4.522802	-1.305961	16.073662	1.000000	
715	0.000000	0.000000	0.000000	5.433136	-1.520306	15.586938	1.000000	
716	0.000000	0.000000	0.000000	6.101518	-1.677488	15.315487	1.000000	
717	0.000000	0.000000	0.000000	7.613526	-1.952218	14.298111	1.000000	
[RUpArm]
#Fr     Tx      Ty      Tz      Rx      Ry      Rz      SF
714	0.000000	0.000000	0.000000	22.270655	3.458358	45.235092	1.000000	
715	0.000000	0.000000	0.000000	24.835823	6.538660	44.086319	1.000000	
716	0.000000	0.000000	0.000000	28.201870	10.303095	42.895561	1.000000	
717	0.000000	0.000000	0.000000	30.487352	14.066401	42.049770	1.000000	
[RLowArm]
#Fr     Tx      Ty      Tz      Rx      Ry      Rz      SF
714	0.000000	0.000000	0.000000	129.357483	0.000157	0.000249	1.000000	
715	0.000000	0.000000	0.000000	129.114380	0.000157	0.000248	1.000000	
716	0.000000	0.000000	0.000000	127.108658	0.000160	0.000243	1.000000	
717	0.000000	0.000000	0.000000	125.950439	0.000162	0.000241	1.000000	
[RHand]
#Fr     Tx      Ty      Tz      Rx      Ry      Rz      SF
714	0.000000	0.000000	0.000000	-2.259425	-5.856484	-19.861626	1.000000	
715	0.000000	0.000000	0.000000	-3.255147	-5.724962	-19.407980	1.000000	
716	0.000000	0.000000	0.000000	-0.860429	-6.234873	-16.665541	1.000000	
717	0.000000	0.000000	0.000000	-1.375778	-5.528387	-17.363552	1.000000	
[RThigh]
#Fr     Tx      Ty      Tz      Rx      Ry      Rz      SF
714	0.000000	0.000000	0.000000	14.462788	9.332980	1.565211	1.000000	
715	0.000000	0.000000	0.000000	14.480453	8.459496	1.335351	1.000000	
716	0.000000	0.000000	0.000000	14.665237	8.465990	1.248787	1.000000	
717	0.000000	0.000000	0.000000	15.777334	9.190033	1.603284	1.000000	
[RLowLeg]
#Fr     Tx      Ty      Tz      Rx      Ry      Rz      SF
714	0.000000	0.000000	0.000000	-29.501751	0.000020	-0.000009	1.000000	
715	0.000000	0.000000	0.000000	-27.398645	0.000019	-0.000008	1.000000	
716	0.000000	0.000000	0.000000	-26.187529	0.000018	-0.000007	1.000000	
717	0.000000	0.000000	0.000000	-25.586132	0.000018	-0.000007	1.000000	
[RFoot]
#Fr     Tx      Ty      Tz      Rx      Ry      Rz      SF
714	0.000000	0.000000	0.000000	-1.278450	4.668244	-1.391282	1.000000	
715	0.000000	0.000000	0.000000	0.471695	4.440507	-2.582343	1.000000	
716	0.000000	0.000000	0.000000	2.279105	4.120842	-3.548197	1.000000	
717	0.000000	0.000000	0.000000	3.349921	3.194330	-4.471304	1.000000	
[RToe]
#Fr     Tx      Ty      Tz      Rx      Ry      Rz      SF
714	0.000000	0.000000	0.000000	8.719702	0.000003	0.000004	1.000000	
715	0.000000	0.000000	0.000000	8.683826	0.000003	0.000004	1.000000	
716	0.000000	0.000000	0.000000	8.370464	0.000003	0.000004	1.000000	
717	0.000000	0.000000	0.000000	8.066040	0.000003	0.000004	1.000000	
[LThigh]
#Fr     Tx      Ty      Tz      Rx      Ry      Rz      SF
714	0.000000	0.000000	0.000000	7.515385	-2.675004	-0.639949	1.000000	
715	0.000000	0.000000	0.000000	9.620903	-3.384960	-1.221814	1.000000	
716	0.000000	0.000000	0.000000	11.188798	-4.167296	-1.601557	1.000000	
717	0.000000	0.000000	0.000000	13.227762	-4.944826	-1.646092	1.000000	
[LLowLeg]
#Fr     Tx      Ty      Tz      Rx      Ry      Rz      SF
714	0.000000	0.000000	0.000000	-15.906639	0.000008	-0.000001	1.000000	
715	0.000000	0.000000	0.000000	-17.504686	0.000008	-0.000001	1.000000	
716	0.000000	0.000000	0.000000	-18.922340	0.000009	-0.000002	1.000000	
717	0.000000	0.000000	0.000000	-20.442829	0.000010	-0.000002	1.000000	
[LFoot]
#Fr     Tx      Ty      Tz      Rx      Ry      Rz      SF
714	0.000000	0.000000	0.000000	-0.992055	-8.380926	1.977852	1.000000	
715	0.000000	0.000000	0.000000	-0.876621	-8.313118	1.420308	1.000000	
716	0.000000	0.000000	0.000000	-0.536502	-8.137047	0.391663	1.000000	
717	0.000000	0.000000	0.000000	-0.002281	-7.527056	-1.075610	1.000000	
[LToe]
#Fr     Tx      Ty      Tz      Rx      Ry      Rz      SF
714	0.000000	0.000000	0.000000	5.087360	0.000020	0.000000	1.000000	
715	0.000000	0.000000	0.000000	5.185405	0.000020	0.000000	1.000000	
716	0.000000	0.000000	0.000000	5.390546	0.000021	0.000000	1.000000	
717	0.000000	0.000000	0.000000	5.699800	0.000022	0.000000	1.000000	
[EndOfFile]
